# xmcd
#
# Track frame offsets:
#	182
#	8667
#	19125
#	30240
#	45405
#	56717
#	68645
#	78482
#	89342
#	100072
#	111670
#	134887
#	145012
#	156057
#
# Disc length: 2213 seconds
#
# Revision: 1
# Processed by: cddbd v1.5.2PL0 Copyright (c) Steve Scherf et al.
# Submitted via: audiograbber 1.83.01
#
DISCID=b208a30e
DTITLE=Various Artist - The Spotlight Series - Spotlite On Roulette Records - 
DTITLE=Volume 1
DYEAR=1900
DGENRE=Oldies
TTITLE0=Heartbeats - Down On My Knees
TTITLE1=Cleftones - She's So Fine
TTITLE2=Tiny Tim and The Hits - Wedding Bells
TTITLE3=Edsels - Do You Love Me
TTITLE4=Heartbeats - I Found A Job
TTITLE5=Five Satins - Ain't Gonna Dance
TTITLE6=Darrell and The Oxfords - Can't You Tell
TTITLE7=Domineers - Nothing Can Go Wrong
TTITLE8=Turbans - Diamonds And Pearls
TTITLE9=Martiniques - Tonight Is Just Another Night
TTITLE10=Flamingos - Ol' Man River  (Full Version)
TTITLE11=Ly-Dells - Karen
TTITLE12=Devotions - Tears From A Broken Heart
TTITLE13=Chances - A Long And Sleepless Night
EXTD=
EXTT0=
EXTT1=
EXTT2=
EXTT3=
EXTT4=
EXTT5=
EXTT6=
EXTT7=
EXTT8=
EXTT9=
EXTT10=
EXTT11=
EXTT12=
EXTT13=
PLAYORDER=
